# xmcd CD database file generated by freedbAccess_ocx
#
# Track frame offsets:
#       150
#       17729
#       36152
#       51133
#       66234
#       84995
#       98033
#       121875
#       136760
#       154358
#
# Disc length: 2238 seconds
#
# Revision: 1
# Processed by: cddbd v1.5.1PL0 Copyright (c) Steve Scherf et al.
# Submitted via: CDnGo 2.00
#
DISCID=7b08bc0a
DTITLE=Herb - Rock Invasion
DYEAR=2004
DGENRE=Hard Rock
TTITLE0=Rock Invasion
TTITLE1=Feel Live
TTITLE2=Heart of Steel
TTITLE3=Just Pray
TTITLE4=Afraid
TTITLE5=Lost
TTITLE6=Everything´s Open
TTITLE7=The Sinner
TTITLE8=As far as my eyes can see
TTITLE9=Start to join my life
EXTD=
EXTT0=
EXTT1=
EXTT2=
EXTT3=
EXTT4=
EXTT5=
EXTT6=
EXTT7=
EXTT8=
EXTT9=
PLAYORDER=
